HIERARCHY
ROOT Hips
{
	OFFSET 0.000000 0.000000 0.000000
	CHANNELS 6 Xposition Yposition Zposition Xrotation Yrotation Zrotation
	JOINT Chest
	{
		OFFSET 0.000000 9.585900 0.002600
		CHANNELS 3 Xrotation Yrotation Zrotation
		JOINT Chest2
		{
			OFFSET 0.000000 9.601200 -0.005300
			CHANNELS 3 Xrotation Yrotation Zrotation
			JOINT Chest3
			{
				OFFSET 0.000000 9.561800 0.000000
				CHANNELS 3 Xrotation Yrotation Zrotation
				JOINT Chest4
				{
					OFFSET 0.000000 9.552100 0.000000
					CHANNELS 3 Xrotation Yrotation Zrotation
					JOINT Neck
					{
						OFFSET 0.000000 14.453000 0.000000
						CHANNELS 3 Xrotation Yrotation Zrotation
						JOINT Head
						{
							OFFSET 0.000000 8.936500 -0.011300
							CHANNELS 3 Xrotation Yrotation Zrotation
							End Site
							{
								OFFSET 0.000000 0.000000 0.000000
							}
						}
					}
					JOINT RightCollar
					{
						OFFSET -2.921100 9.558500 0.000000
						CHANNELS 3 Xrotation Yrotation Zrotation
						JOINT RightShoulder
						{
							OFFSET -13.519700 0.000000 0.000000
							CHANNELS 3 Xrotation Yrotation Zrotation
							JOINT RightElbow
							{
								OFFSET 0.000000 -29.696600 0.000000
								CHANNELS 3 Xrotation Yrotation Zrotation
								JOINT RightWrist
								{
									OFFSET 0.000000 -24.004700 0.000000
									CHANNELS 3 Xrotation Yrotation Zrotation
									End Site
									{
										OFFSET 0.000000 0.000000 0.000000
									}
								}
							}
						}
					}
					JOINT LeftCollar
					{
						OFFSET 2.921100 9.558500 0.000000
						CHANNELS 3 Xrotation Yrotation Zrotation
						JOINT LeftShoulder
						{
							OFFSET 13.519700 0.000000 0.000000
							CHANNELS 3 Xrotation Yrotation Zrotation
							JOINT LeftElbow
							{
								OFFSET 0.000000 -29.696600 0.000000
								CHANNELS 3 Xrotation Yrotation Zrotation
								JOINT LeftWrist
								{
									OFFSET 0.000000 -24.004700 0.000000
									CHANNELS 3 Xrotation Yrotation Zrotation
									End Site
									{
										OFFSET 0.000000 0.000000 0.000000
									}
								}
							}
						}
					}
				}
			}
		}
	}
	JOINT RightHip
	{
		OFFSET -7.771700 -0.012900 -0.001300
		CHANNELS 3 Xrotation Yrotation Zrotation
		JOINT RightKnee
		{
			OFFSET 0.000000 -40.869801 0.001200
			CHANNELS 3 Xrotation Yrotation Zrotation
			JOINT RightAnkle
			{
				OFFSET 0.000000 -39.717899 0.002100
				CHANNELS 3 Xrotation Yrotation Zrotation
				JOINT RightToe
				{
					OFFSET 0.000000 -4.965400 11.033500
					CHANNELS 3 Xrotation Yrotation Zrotation
					End Site
					{
						OFFSET 0.000000 0.000000 0.000000
					}
				}
			}
		}
	}
	JOINT LeftHip
	{
		OFFSET 7.771700 -0.012900 -0.001300
		CHANNELS 3 Xrotation Yrotation Zrotation
		JOINT LeftKnee
		{
			OFFSET 0.000000 -40.869801 0.001200
			CHANNELS 3 Xrotation Yrotation Zrotation
			JOINT LeftAnkle
			{
				OFFSET 0.000000 -39.717899 0.002100
				CHANNELS 3 Xrotation Yrotation Zrotation
				JOINT LeftToe
				{
					OFFSET 0.000000 -4.965400 11.033500
					CHANNELS 3 Xrotation Yrotation Zrotation
					End Site
					{
						OFFSET 0.000000 0.000000 0.000000
					}
				}
			}
		}
	}
}
MOTION
Frames: 15
Frame Time: 0.032
0.0 0.0 0.0 -179.138704 21.428930 179.441528 3.276149 2.410008 0.693480 -1.424827 3.827498 -0.766860 -1.003742 -0.617007 0.895863 1.737978 0.334863 -0.257171 17.417889 0.278160 -0.331878 -1.373817 4.084464 -1.090606 8.383386 0.035336 1.842830 -25.137155 -32.302345 -19.034737 -100.996587 -29.394009 -5.196748 -19.626224 -15.314356 -39.866919 8.995973 0.001444 -1.066537 -14.676958 41.473295 1.244335 -92.754877 36.265111 -15.252151 -2.950087 16.706824 4.463229 -72.663425 -5.493680 -5.468929 78.640216 -10.366602 -1.890703 -10.864900 -5.692027 -3.405993 0.174268 -0.227991 0.033005 -75.354820 3.189167 20.054159 69.098558 15.614536 -2.747821 -14.245812 -17.862572 -1.736323 -0.393966 -0.347907 -0.394071
0.0 0.0 0.0 -179.161189 21.434597 179.407609 3.255192 2.356244 0.698271 -1.428851 3.785845 -0.795009 -1.006900 -0.673144 0.859750 1.724670 0.278854 -0.292074 17.409619 0.224275 -0.330964 -1.373482 4.035692 -1.082116 8.368722 -0.026563 1.846909 -25.152018 -32.373389 -19.070528 -101.054677 -29.426425 -5.263635 -19.677063 -15.283810 -39.904646 8.998718 -0.048047 -1.093036 -14.691520 41.448460 1.229723 -92.785716 36.219291 -15.230837 -2.955271 16.664601 4.515182 -72.680412 -5.539653 -5.475923 78.649471 -10.402552 -1.883898 -10.886875 -5.747630 -3.410090 0.173864 -0.273813 0.043032 -75.364826 3.160502 20.027172 69.094037 15.567196 -2.742289 -14.242887 -17.900785 -1.757402 -0.392156 -0.394576 -0.400273
0.0 0.0 0.0 -179.137052 21.410063 179.435394 3.274232 2.373552 0.690234 -1.440061 3.799085 -0.754319 -1.016225 -0.660535 0.909587 1.716558 0.291315 -0.248542 17.397798 0.233702 -0.346900 -1.380831 4.055757 -1.094289 8.348272 -0.018698 1.823916 -25.157554 -32.353247 -19.087087 -101.095071 -29.437576 -5.244546 -19.682129 -15.277026 -39.887564 8.982216 -0.037058 -1.054729 -14.750086 41.468223 1.307001 -92.831922 36.247377 -15.232073 -2.971677 16.688266 4.525248 -72.685651 -5.515762 -5.479220 78.632894 -10.389934 -1.892003 -10.903404 -5.731154 -3.423871 0.166987 -0.255899 0.035238 -75.370509 3.157375 20.043026 69.089488 15.555799 -2.748862 -14.239213 -17.877803 -1.707802 -0.398624 -0.376143 -0.381225
0.0 0.0 0.0 -179.077970 21.403279 179.451418 3.285581 2.363904 0.647521 -1.403879 3.799066 -0.763961 -0.977720 -0.664541 0.907031 1.755589 0.286149 -0.253113 17.427468 0.225613 -0.393739 -1.346654 4.052680 -1.124320 8.370457 -0.027475 1.789440 -25.148408 -32.363438 -19.132390 -101.140669 -29.452104 -5.277730 -19.688968 -15.291212 -39.897068 9.016781 -0.034370 -1.064704 -14.681358 41.470583 1.267793 -92.820591 36.239860 -15.293477 -2.926030 16.688256 4.510435 -72.678247 -5.510245 -5.524203 78.651179 -10.397641 -1.930847 -10.882154 -5.737740 -3.468394 0.198582 -0.259472 0.002092 -75.345859 3.145552 20.027995 69.111542 15.536828 -2.789040 -14.204659 -17.870628 -1.707514 -0.361761 -0.379674 -0.402218
0.0 0.0 0.0 -179.088038 21.413051 179.448658 3.280600 2.351793 0.652451 -1.412524 3.794635 -0.758668 -0.991248 -0.673144 0.906590 1.743440 0.269941 -0.252690 17.413111 0.214026 -0.398216 -1.357339 4.050752 -1.135141 8.342680 -0.036651 1.768607 -25.162825 -32.374420 -19.150679 -101.186322 -29.437723 -5.301625 -19.710143 -15.267146 -39.905988 9.011476 -0.031773 -1.058825 -14.738302 41.485900 1.302428 -92.884412 36.235885 -15.263016 -2.945191 16.693338 4.534633 -72.675999 -5.519541 -5.526088 78.652340 -10.401982 -1.924942 -10.901266 -5.742293 -3.476341 0.186945 -0.263268 -0.006305 -75.352737 3.131110 20.004695 69.099938 15.511228 -2.777693 -14.198271 -17.864708 -1.708485 -0.369442 -0.383396 -0.402204
0.0 0.0 0.0 -179.134033 21.396599 179.448754 3.255043 2.332195 0.672151 -1.439821 3.778923 -0.769082 -1.032105 -0.701211 0.889841 1.709034 0.238915 -0.270529 17.380962 0.192627 -0.382394 -1.388064 4.042272 -1.105773 8.301070 -0.057509 1.779005 -25.217694 -32.403486 -19.149310 -101.240957 -29.425353 -5.335400 -19.761289 -15.255999 -39.943599 8.979940 -0.041553 -1.067227 -14.797982 41.501179 1.306825 -92.938432 36.231230 -15.211552 -2.976774 16.703516 4.579488 -72.704283 -5.540039 -5.527376 78.646780 -10.417405 -1.897419 -10.937760 -5.759228 -3.467463 0.160691 -0.274372 0.012626 -75.383124 3.111863 19.985817 69.084099 15.486356 -2.751778 -14.225781 -17.870504 -1.727992 -0.394502 -0.394647 -0.395958
0.0 0.0 0.0 -179.030924 21.428298 179.463931 3.360498 2.338634 0.673794 -1.352584 3.777571 -0.761205 -0.943714 -0.706956 0.904075 1.798360 0.232819 -0.255518 17.460480 0.198973 -0.392423 -1.296456 4.044774 -1.098886 8.360500 -0.057206 1.778671 -25.152257 -32.446226 -19.174966 -101.290776 -29.448046 -5.422531 -19.729063 -15.267425 -39.948690 9.058539 -0.035381 -1.058252 -14.727951 41.504580 1.329911 -92.943070 36.176234 -15.260972 -2.883429 16.704288 4.628420 -72.666130 -5.584816 -5.572851 78.696449 -10.367180 -1.932158 -10.861896 -5.772928 -3.478166 0.252220 -0.269876 0.019256 -75.327568 3.061151 19.966528 69.147906 15.513320 -2.780593 -14.133164 -17.874468 -1.710406 -0.300680 -0.391482 -0.383188
0.0 0.0 0.0 -179.059734 21.407338 179.460434 3.318007 2.332933 0.671161 -1.380364 3.786413 -0.767571 -0.961920 -0.704919 0.891918 1.773243 0.236216 -0.271387 17.424490 0.194746 -0.394538 -1.338956 4.044521 -1.097430 8.329167 -0.064455 1.764033 -25.171624 -32.434383 -19.179864 -101.334920 -29.398801 -5.416073 -19.758108 -15.199073 -39.944360 9.022700 -0.032843 -1.063078 -14.774497 41.505670 1.320235 -92.975786 36.168300 -15.239976 -2.912700 16.702493 4.686676 -72.665952 -5.559710 -5.555304 78.683786 -10.372017 -1.914288 -10.896946 -5.764367 -3.477179 0.215867 -0.269536 0.013862 -75.333517 3.090237 19.934004 69.140045 15.490620 -2.774832 -14.160731 -17.847170 -1.720883 -0.333712 -0.390202 -0.391202
0.0 0.0 0.0 -179.133787 21.399553 179.464368 3.274531 2.316547 0.684524 -1.423203 3.785141 -0.770076 -1.015688 -0.715943 0.885967 1.718829 0.223132 -0.275276 17.377519 0.183311 -0.375990 -1.391196 4.037624 -1.081333 8.269448 -0.071401 1.786915 -25.247801 -32.458159 -19.203487 -101.411541 -29.354609 -5.433881 -19.831792 -15.126574 -39.971838 8.976831 -0.032098 -1.061057 -14.862037 41.534169 1.355224 -93.057434 36.166565 -15.165576 -2.955435 16.689168 4.770280 -72.713921 -5.562213 -5.536217 78.659252 -10.393775 -1.879920 -10.949107 -5.766803 -3.465662 0.166654 -0.277649 0.030405 -75.382209 3.091064 19.937766 69.115299 15.472947 -2.743849 -14.215189 -17.850069 -1.735768 -0.382008 -0.398666 -0.385036
0.0 0.0 0.0 -179.110127 21.393886 179.450817 3.296090 2.269223 0.677093 -1.395485 3.749903 -0.772073 -0.996653 -0.758118 0.889615 1.747123 0.180858 -0.277861 17.395821 0.147595 -0.372623 -1.387814 3.990779 -1.062711 8.266802 -0.099783 1.796489 -25.296996 -32.507107 -19.247818 -101.465301 -29.349463 -5.478621 -19.850070 -15.106437 -40.001754 8.998473 -0.052525 -1.054827 -14.861749 41.492327 1.371121 -93.086087 36.096006 -15.147556 -2.929350 16.630276 4.855719 -72.693683 -5.616665 -5.550353 78.671273 -10.430124 -1.881213 -10.930216 -5.800728 -3.462972 0.178262 -0.322422 0.031182 -75.357450 3.032397 19.916786 69.144464 15.443254 -2.746310 -14.212220 -17.888697 -1.760259 -0.367667 -0.444914 -0.391189
0.0 0.0 0.0 -179.129484 21.371085 179.441391 3.276018 2.258542 0.660860 -1.409082 3.740125 -0.759524 -0.996789 -0.769198 0.903245 1.731663 0.178689 -0.272957 17.378955 0.123977 -0.385217 -1.410393 3.966661 -1.074033 8.278054 -0.116528 1.781489 -25.278257 -32.521966 -19.233068 -101.516842 -29.346167 -5.478421 -19.858647 -15.018850 -39.975376 8.987047 -0.066783 -1.045760 -14.897211 41.483598 1.366840 -93.113613 36.102618 -15.143832 -2.912845 16.600893 4.948161 -72.697535 -5.613383 -5.531701 78.648788 -10.446335 -1.877804 -10.946631 -5.811480 -3.475224 0.163169 -0.339909 0.018383 -75.368037 3.036110 19.909964 69.139676 15.413686 -2.760085 -14.222523 -17.893255 -1.741437 -0.379467 -0.460811 -0.389572
0.0 0.0 0.0 -179.080607 21.381405 179.455106 3.303509 2.273737 0.621056 -1.371179 3.759118 -0.763559 -0.943972 -0.746823 0.914759 1.773262 0.210046 -0.267377 17.409565 0.138162 -0.423363 -1.385514 3.971192 -1.089756 8.324274 -0.092385 1.759789 -25.235456 -32.486873 -19.238399 -101.563410 -29.300548 -5.500166 -19.830822 -14.911638 -39.950101 9.027097 -0.046531 -1.052097 -14.834985 41.470197 1.325396 -93.080575 36.090108 -15.215988 -2.821308 16.582687 5.027596 -72.684537 -5.587975 -5.545194 78.651875 -10.422260 -1.903389 -10.914110 -5.794482 -3.507802 0.193579 -0.325046 -0.004121 -75.344807 3.056982 19.910174 69.181886 15.424089 -2.802042 -14.199240 -17.867218 -1.732972 -0.344160 -0.445690 -0.404951
0.0 0.0 0.0 -179.148390 21.395723 179.451117 3.303111 2.256762 0.652719 -1.371322 3.764966 -0.755468 -0.949435 -0.750434 0.915689 1.756059 0.212845 -0.267592 17.403570 0.142043 -0.378285 -1.409752 3.956115 -1.041377 8.327324 -0.081455 1.817737 -25.300151 -32.528660 -19.238360 -101.633488 -29.243650 -5.549681 -19.876691 -14.807698 -39.968901 9.029436 -0.038313 -1.041594 -14.845490 41.491647 1.317286 -93.099515 36.058426 -15.175255 -2.788769 16.554410 5.195605 -72.707910 -5.613772 -5.509289 78.635435 -10.413155 -1.866789 -10.913538 -5.797905 -3.470196 0.180636 -0.336005 0.031677 -75.376171 3.050413 19.920812 69.196366 15.453433 -2.770954 -14.234320 -17.886951 -1.752927 -0.362309 -0.457578 -0.389947
0.0 0.0 0.0 -179.160916 21.416125 179.462059 3.308314 2.256981 0.628706 -1.339477 3.766568 -0.764395 -0.917281 -0.749152 0.905135 1.783222 0.228980 -0.283316 17.421050 0.140975 -0.390563 -1.406856 3.936439 -1.059132 8.357308 -0.071550 1.810814 -25.285459 -32.508391 -19.259093 -101.669886 -29.171731 -5.582040 -19.837069 -14.679234 -39.928241 9.049470 -0.031589 -1.048535 -14.839821 41.451435 1.308020 -93.073676 36.020796 -15.192595 -2.691682 16.516769 5.326168 -72.697870 -5.621206 -5.506314 78.633803 -10.406834 -1.873706 -10.880755 -5.791557 -3.480713 0.195780 -0.340781 0.014367 -75.370038 3.046650 19.901401 69.226358 15.464588 -2.789240 -14.230947 -17.892056 -1.781066 -0.344158 -0.462785 -0.405773
0.0 0.0 0.0 -179.191584 21.433443 179.449014 3.317162 2.261039 0.634840 -1.340679 3.756279 -0.753537 -0.902241 -0.755973 0.911406 1.782433 0.239566 -0.281995 17.414860 0.123811 -0.381116 -1.427575 3.906567 -1.050177 8.374228 -0.077121 1.820559 -25.230632 -32.462018 -19.198135 -101.699720 -29.086361 -5.558317 -19.823366 -14.511089 -39.869576 9.047859 -0.045492 -1.042299 -14.854642 41.370005 1.296899 -93.040304 35.943891 -15.221731 -2.590745 16.431183 5.508066 -72.690609 -5.639375 -5.461573 78.610355 -10.395328 -1.852248 -10.873312 -5.795453 -3.468229 0.190717 -0.354265 0.020655 -75.372524 3.050153 19.884499 69.244328 15.457420 -2.793289 -14.235312 -17.897674 -1.770547 -0.345981 -0.475548 -0.396102
